<svg width="148" height="35" viewBox="0 0 148 35" fill="none" xmlns="http://www.w3.org/2000/svg">
<path d="M3.3148 6.08099H10.6852V0H14V15H10.6852V8.73592H3.3148V15H0V0H3.3148V6.08099Z" transform="translate(56 14)" fill="white"/>
<path d="M3.34896 8.88579C3.34896 11.5077 4.18009 12.601 6.98079 12.601C9.78149 12.601 10.5952 11.5077 10.5952 8.88579V0H14V8.96588C14 10.867 13.773 12.1692 13.0571 12.9526C11.7336 14.4011 9.80244 15 6.99825 15C4.19406 15 2.24545 14.4011 0.921926 12.9526C0.178099 12.1518 0 10.8635 0 8.96588V0H3.36643L3.34896 8.88579Z" transform="translate(73 14)" fill="white"/>
<path fill-rule="evenodd" clip-rule="evenodd" d="M17 15L10.2427 0L6.70947 0.00708008L0 15H3.5332L4.95996 11.4312H11.834L13.2915 15H17ZM10.7549 8.75293H6.02539L8.34912 2.99146L10.7549 8.75293Z" transform="translate(87 14)" fill="white"/>
<path d="M3.63016 0L7.34392 11.5352L10.4759 0H14.4614L18.0637 11.5352L21.5301 0H25L20.0321 15H15.8898L12.4652 3.80634L9.47255 15H5.35117L0 0H3.63016Z" transform="translate(102 14)" fill="white"/>
<path d="M3.76921 6.09507H13V8.70423H3.74861C3.76921 11.4014 4.89517 12.3838 7.52469 12.3838H13V15H7.36335C5.44442 15 3.96831 14.8556 2.42355 13.6866C0.792976 12.4542 0 10.4894 0 7.77113C0 2.47183 2.36176 0 7.4526 0H13V2.6162H7.50753C5.10457 2.6162 3.89279 3.73944 3.75891 6.10211" transform="translate(128 14)" fill="white"/>
<path d="M0 0H4V15H0V0Z" transform="translate(144 14)" fill="white"/>
<path d="M16.9451 20.9533C16.9967 20.9121 17.0141 20.8426 16.9879 20.7829C13.45 13.381 9.04043 6.40635 3.84831 0C3.84831 0 -0.280772 3.82677 0.0151819 7.65355C0.155287 9.43885 1.01423 11.0974 2.4042 12.2665C6.00556 15.6898 14.7201 20.0071 16.7455 20.9916C16.7704 20.9951 16.8774 21.0229 16.9451 20.9533Z" transform="translate(4 6)" fill="white"/>
<path d="M13.9936 0.129921C13.9664 0.0513846 13.8957 -0.000581735 13.8169 4.91614e-06L0 0.505233C1.49785 3.34534 4.02485 5.55752 6.65374 4.87546C8.46407 4.38467 12.567 1.34608 13.9256 0.317577C14.0309 0.216531 13.9936 0.129921 13.9936 0.129921Z" transform="translate(5 30)" fill="white"/>
<path d="M18.9797 10.8802C19.0466 10.7685 18.9268 10.6707 18.9268 10.6707C12.626 6.45758 0.412432 0 0.412432 0C-0.957705 4.20311 1.18869 8.73952 5.32749 10.388C6.20397 10.7296 7.13009 10.93 8.07062 10.9814C8.2857 11.0233 16.6032 10.9814 18.8316 10.9814C18.8949 10.9743 18.9505 10.9363 18.9797 10.8802Z" transform="translate(0 18)" fill="white"/>
<path d="M7.27882 0C6.65751 0.0522968 4.99367 0.43232 4.99367 0.43232C2.77365 0.989873 1.00136 2.64732 0.307533 4.81479C-0.39451 6.95896 0.325084 9.31231 0.325084 9.31231C1.58525 14.8906 7.79833 24.0147 9.13221 25.9322C9.22699 26.0264 9.30421 25.995 9.30421 25.995C9.38575 25.9734 9.4403 25.8973 9.43409 25.8137C11.4911 5.40749 7.27882 0 7.27882 0Z" transform="translate(13)" fill="white"/>
<path d="M0.677982 25.989C0.757526 26.0194 0.847301 25.9847 0.885135 25.9088C2.25797 23.9389 8.43045 14.8494 9.69093 9.30919C9.69093 9.30919 10.3721 6.62452 9.71199 4.81149C9.00704 2.63803 7.21872 0.982246 4.98608 0.435824C4.98608 0.435824 3.89413 0.16387 2.73899 0C2.73899 0 -1.49538 5.41118 0.565627 25.8321C0.568863 25.9018 0.612792 25.9631 0.677982 25.989Z" transform="translate(24)" fill="white"/>
<path d="M0.161299 0.00360451C0.0946691 0.0128902 0.0364209 0.055888 0.00504461 0.118949C-0.0104209 0.18946 0.010226 0.263403 0.059394 0.313592C1.38076 1.32286 5.39242 4.29658 7.32522 4.8733C7.32522 4.8733 10.8987 6.16371 14 0.508236L0.161299 0V0.00360451Z" transform="translate(28 30)" fill="white"/>
<path d="M18.5926 0C18.5926 0 6.39365 6.47716 0.082524 10.6859C0.0141364 10.7305 -0.0160953 10.8145 0.00844145 10.8918C0.00844145 10.8918 0.068413 11 0.156607 11C2.41436 11 10.9621 11 11.1808 10.9721C12.0273 10.9078 12.8595 10.7196 13.6502 10.4137C15.712 9.61219 17.3721 8.04014 18.2716 6.03744C19.1163 4.13034 19.2304 1.98425 18.5926 0V0Z" transform="translate(28 18)" fill="white"/>
<path d="M0.0651629 20.9724C0.123939 21.0092 0.199301 21.0092 0.258077 20.9724C2.34084 19.9665 11.0041 15.671 14.5945 12.2702C14.5945 12.2702 16.8666 10.4914 16.9881 7.63362C17.2488 3.66887 13.1548 0 13.1548 0C7.96636 6.39644 3.55814 13.3585 0.0187205 20.7462C-0.0181925 20.8234 0.000613272 20.915 0.0651629 20.9724Z" transform="translate(27 6)" fill="white"/>
</svg>
