<svg width="153" height="28" viewBox="0 0 153 28" fill="none" xmlns="http://www.w3.org/2000/svg">
<path fill-rule="evenodd" clip-rule="evenodd" d="M45.5034 0L40.0898 3.15112V4.87085H47.1218V0H45.5034ZM144.796 6.55054C143.18 6.55054 141.236 6.7168 140.122 6.81201L140.097 6.81421L140.087 6.81494C139.659 6.85156 139.36 6.87695 139.258 6.87695V27.262H143.745V20.3044C144.399 20.4136 145.062 20.4683 145.725 20.4678C149.847 20.4678 153 17.7258 153 13.5505C153 8.80273 149.525 6.55054 144.796 6.55054ZM145.2 16.6614C145.101 16.6636 145.002 16.6624 144.904 16.6575C144.806 16.6523 144.708 16.6438 144.612 16.6318C144.573 16.627 144.533 16.6216 144.495 16.6155C144.359 16.5947 144.225 16.5671 144.093 16.5325C144.032 16.5168 143.972 16.4995 143.912 16.481L143.846 16.46C143.812 16.4487 143.778 16.437 143.745 16.4248V10.6455C143.871 10.6238 144.158 10.6138 144.465 10.6091C144.723 10.6052 144.997 10.6052 145.2 10.6052C147.18 10.6052 148.513 11.5869 148.513 13.6333C148.513 15.5991 147.14 16.6614 145.2 16.6614ZM134.251 20.1082H129.926V23.1694H135.501V27.262H125.519V6.79419H135.181V10.8821H129.926V16.1694H134.251V20.1082ZM113.599 16.8247V6.79419H109.195V27.262H113.599V20.6379H114.407L119.58 27.262H121.448V22.5139C121.091 22.021 120.688 21.4753 120.282 20.9246L119.768 20.2268C119.338 19.6426 118.925 19.0759 118.578 18.5847L118.711 18.1914L118.845 17.7903C119.329 16.3281 119.895 14.5288 120.274 13.2217L122.172 6.79419H117.558L114.568 16.8223L113.599 16.8247ZM56.9443 17.0281C56.9443 20.3044 59.5718 21.8186 61.1877 21.8186V12.24C59.5669 12.24 56.9443 13.7517 56.9443 17.0281ZM44.9778 27.2642V21.4919L44.2607 21.4897L39.4919 27.262H37.1074V6.79419H41.5447V9.90747C41.5447 12.0222 41.4241 15.6028 41.3401 18.095L41.3113 18.9536H42.0376L44.9778 15.074V6.79419H49.415V27.2642H44.9778ZM2.87012 14.615C2.87012 18.7078 2.33545 22.76 0 23.6189V28C5.45557 27.4275 7.15332 22.5969 7.15332 15.3911V10.4089H10.0632V27.2737H14.5005V6.79419H2.87012V14.615ZM69.7517 17.04C69.7517 13.7634 67.1245 12.2495 65.5083 12.2495V21.8186C67.1245 21.8186 69.7517 20.3164 69.7517 17.04ZM65.5083 25.3906C70.3567 25.3906 74.238 21.9509 74.238 17.0398C74.238 12.1289 70.3589 8.68921 65.5083 8.68921V5.89526H61.1877V8.67725C56.3394 8.67725 52.458 12.1169 52.458 17.0281C52.458 21.9392 56.3372 25.3789 61.1877 25.3789V27.8345H65.5083V25.3906ZM80.3054 10.1895C80.6978 10.9312 81.0725 11.6541 81.3892 12.292L82.2393 12.2803C82.6199 11.509 83.0901 10.6106 83.574 9.70459C84.0225 8.86499 84.4829 8.0188 84.8948 7.26196L84.8977 7.25684L85.1492 6.79419H87.0876V12.4031L84.542 16.6614L87.4448 21.615V27.2642H85.5042L82.2346 21.0425H81.3867L78.1172 27.2642H76.1765V21.615L79.0747 16.6614L76.5291 12.4031V6.79419H78.47C79.0208 7.79834 79.6853 9.01709 80.3054 10.1895ZM101.357 6.79419H94.4441L89.0283 27.262H93.5544L94.4441 23.6567H101.357L102.247 27.2595H106.773L101.357 6.79419ZM95.4133 19.8953H100.383L98.2834 11.2583H97.4756L95.4133 19.8953ZM29.2581 6.79419H22.3474L16.9316 27.262H21.4578L22.3474 23.6567H29.2581L30.1477 27.2595H34.6738L29.2581 6.79419ZM23.3169 19.8953H28.2891L26.187 11.2583H25.3792L23.3169 19.8953Z" fill="white"/>
</svg>
