<svg xmlns="http://www.w3.org/2000/svg"><symbol id="icon-next" viewBox="0 0 21 38"><path fill-rule="evenodd" clip-rule="evenodd" d="M18.652 17.268l1.167 1.166a.8.8 0 0 1 0 1.132l-1.167 1.166L2.566 36.82a.8.8 0 0 1-1.132 0L.268 35.652a.8.8 0 0 1 0-1.131L15.788 19 .269 3.479a.8.8 0 0 1 0-1.131L1.434 1.18a.8.8 0 0 1 1.132 0l16.086 16.087z"/></symbol><symbol id="icon-prev" viewBox="0 0 21 38"><path fill-rule="evenodd" clip-rule="evenodd" d="M1.18 18.434a.8.8 0 0 0 0 1.132l1.168 1.166L18.434 36.82a.8.8 0 0 0 1.132 0l1.166-1.167a.8.8 0 0 0 0-1.131L5.212 19l15.52-15.521a.8.8 0 0 0 0-1.131L19.566 1.18a.8.8 0 0 0-1.132 0L2.348 17.268 1.18 18.434z"/></symbol></svg>